<?xml version="1.0" encoding="UTF-8" standalone="no" ?>
<!DOCTYPE svg PUBLIC "-//W3C//DTD SVG 1.1//EN" "http://www.w3.org/Graphics/SVG/1.1/DTD/svg11.dtd">
<svg xmlns="http://www.w3.org/2000/svg" xmlns:xlink="http://www.w3.org/1999/xlink" version="1.1" width="1080" height="1080" viewBox="0 0 1080 1080" xml:space="preserve">
<desc>Created with Fabric.js 5.2.4</desc>
<defs>
</defs>
<rect x="0" y="0" width="100%" height="100%" fill="transparent"></rect>
<g transform="matrix(1 0 0 1 540 540)" id="b5266856-efbd-4d46-9127-26c90524d0f1"  >
<rect style="stroke: none; stroke-width: 1; stroke-dasharray: none; stroke-linecap: butt; stroke-dashoffset: 0; stroke-linejoin: miter; stroke-miterlimit: 4; fill: rgb(255,255,255); fill-rule: nonzero; opacity: 1; visibility: hidden;" vector-effect="non-scaling-stroke"  x="-540" y="-540" rx="0" ry="0" width="1080" height="1080" />
</g>
<g transform="matrix(1 0 0 1 540 540)" id="c703bb6a-deec-46e0-95d0-0cffa61a24c3"  >
</g>
<g transform="matrix(0.11 0 0 0.11 546.09 546.8)"  >
<g style="" vector-effect="non-scaling-stroke"   >
		<g transform="matrix(0.13 0 0 -0.13 196.56 -272.73)"  >
<path style="stroke: none; stroke-width: 1; stroke-dasharray: none; stroke-linecap: butt; stroke-dashoffset: 0; stroke-linejoin: miter; stroke-miterlimit: 4; fill: rgb(0,0,0); fill-rule: nonzero; opacity: 1;" vector-effect="non-scaling-stroke"  transform=" translate(-3741.19, -4191.5)" d="M 3711 4247 C 3699 4217 3711 4172 3736 4154 C 3749 4144 3749 4140 3735 4126 C 3720 4111 3720 4110 3740 4110 C 3753 4110 3764 4119 3771 4136 C 3782 4167 3776 4192 3744 4239 L 3721 4273 L 3711 4247 z" stroke-linecap="round" />
</g>
		<g transform="matrix(0.13 0 0 -0.13 0 -46.03)"  >
<path style="stroke: none; stroke-width: 1; stroke-dasharray: none; stroke-linecap: butt; stroke-dashoffset: 0; stroke-linejoin: miter; stroke-miterlimit: 4; fill: rgb(0,0,0); fill-rule: nonzero; opacity: 1;" vector-effect="non-scaling-stroke"  transform=" translate(-2266.95, -2491.27)" d="M 3825 4228 C 3829 4204 3836 4169 3842 4149 C 3852 4114 3849 4105 3797 4009 C 3632 3697 3571 3597 3541 3584 C 3525 3577 3504 3557 3494 3538 C 3477 3505 3477 3505 3497 3523 C 3522 3545 3543 3545 3564 3521 C 3587 3496 3576 3437 3543 3404 C 3513 3374 3503 3374 3449 3404 C 3425 3417 3391 3431 3374 3435 C 3343 3441 3343 3441 3337 3393 C 3331 3340 3339 3325 3375 3316 C 3389 3312 3400 3304 3400 3297 C 3400 3282 3248 3049 3228 3033 C 3217 3025 3095 2990 3075 2990 C 3061 2990 3075 3017 3125 3085 C 3155 3125 3180 3161 3180 3165 C 3180 3168 3194 3189 3210 3212 C 3227 3234 3240 3258 3240 3264 C 3240 3289 2986 3475 2967 3463 C 2962 3460 2960 3461 2963 3467 C 2971 3480 2785 3567 2656 3611 L 2558 3644 L 2528 3610 C 2441 3509 2339 3424 2291 3414 C 2277 3411 2238 3402 2205 3393 C 2172 3385 2123 3372 2095 3365 C 1955 3330 1719 3231 1622 3166 C 1592 3146 1565 3130 1562 3130 C 1558 3130 1537 3116 1516 3100 C 1459 3056 1451 3063 1499 3115 C 1522 3140 1538 3165 1535 3170 C 1531 3176 1533 3179 1538 3178 C 1543 3176 1598 3222 1660 3280 C 1721 3338 1777 3387 1782 3389 C 1788 3391 1776 3403 1756 3415 C 1720 3437 1719 3437 1657 3419 C 1553 3390 1457 3353 1385 3316 C 1316 3279 1290 3272 1290 3290 C 1290 3296 1294 3300 1298 3300 C 1307 3300 1344 3439 1337 3446 C 1329 3454 1170 3358 1160 3339 C 1154 3329 1144 3315 1136 3307 C 1108 3280 1012 3124 966 3035 C 860 2827 780 2504 780 2286 C 780 2240 781 2238 800 2251 C 1292 2596 1847 2870 2269 2975 C 2417 3012 2627 3046 2638 3035 C 2642 3031 2618 3003 2585 2973 C 2434 2833 1851 2261 1290 1700 C 858 1269 627 1030 517 901 C 430 800 361 715 364 713 C 366 710 397 722 432 738 C 466 755 531 784 575 803 C 678 848 873 933 975 977 C 1019 996 1111 1037 1180 1067 C 1249 1098 1337 1136 1375 1153 C 1414 1169 1468 1193 1495 1205 C 1553 1231 1686 1289 1746 1314 C 1775 1327 1872 1417 2083 1628 L 2379 1925 L 2389 2116 C 2395 2221 2402 2314 2406 2323 C 2409 2332 2421 2342 2431 2345 C 2449 2351 2450 2358 2444 2428 L 2438 2505 L 2549 2734 C 2610 2860 2663 2961 2665 2958 C 2668 2956 2665 2915 2660 2868 C 2648 2761 2630 2370 2637 2353 C 2647 2329 2659 2340 2670 2383 C 2694 2474 2723 2556 2741 2582 C 2759 2608 2759 2609 2735 2655 C 2710 2702 2702 2746 2720 2735 C 2726 2732 2730 2734 2730 2739 C 2730 2745 2736 2750 2743 2750 C 2750 2750 2767 2760 2780 2773 C 2794 2785 2812 2796 2820 2798 C 2828 2800 2842 2807 2850 2814 C 2858 2821 2885 2838 2910 2851 C 2935 2864 2957 2878 2960 2881 C 2968 2891 3015 2914 3022 2912 C 3026 2911 3046 2916 3067 2924 C 3088 2931 3143 2943 3190 2949 C 3273 2961 3451 3023 3459 3042 C 3461 3047 3484 3084 3511 3123 C 3540 3166 3558 3202 3554 3212 C 3551 3224 3564 3237 3609 3260 C 3652 3283 3670 3299 3675 3318 C 3679 3333 3695 3367 3711 3394 C 3728 3420 3739 3449 3736 3457 C 3726 3483 3752 3554 3784 3586 C 3801 3603 3839 3655 3869 3701 C 3902 3754 3942 3801 3976 3828 L 4030 3871 L 4023 3916 C 4016 3971 4022 3976 4098 3986 C 4142 3991 4153 3997 4161 4017 C 4166 4030 4170 4047 4170 4055 C 4170 4070 4099 4124 4030 4164 C 3955 4206 3831 4270 3824 4270 C 3821 4270 3821 4251 3825 4228 z M 3385 3400 C 3388 3394 3384 3393 3376 3396 C 3358 3403 3355 3410 3369 3410 C 3375 3410 3382 3406 3385 3400 z M 2864 3058 C 2858 3023 2849 2978 2846 2958 C 2838 2914 2726 2770 2699 2770 C 2690 2770 2679 2764 2677 2758 C 2674 2751 2673 2763 2675 2785 C 2676 2807 2687 2841 2699 2860 C 2821 3056 2863 3117 2876 3120 C 2876 3120 2871 3092 2864 3058 z" stroke-linecap="round" />
</g>
		<g transform="matrix(0.13 0 0 -0.13 -36.31 -191.52)"  >
<path style="stroke: none; stroke-width: 1; stroke-dasharray: none; stroke-linecap: butt; stroke-dashoffset: 0; stroke-linejoin: miter; stroke-miterlimit: 4; fill: rgb(0,0,0); fill-rule: nonzero; opacity: 1;" vector-effect="non-scaling-stroke"  transform=" translate(-1994.63, -3582.44)" d="M 2055 3655 C 1964 3643 1773 3594 1756 3579 C 1751 3575 1772 3559 1801 3545 C 1831 3530 1862 3511 1871 3503 C 1885 3491 1894 3492 1936 3508 C 1963 3519 2017 3535 2056 3544 C 2119 3560 2133 3568 2181 3616 L 2234 3670 L 2190 3669 C 2165 3668 2104 3662 2055 3655 z" stroke-linecap="round" />
</g>
		<g transform="matrix(0.13 0 0 -0.13 142.54 51.68)"  >
<path style="stroke: none; stroke-width: 1; stroke-dasharray: none; stroke-linecap: butt; stroke-dashoffset: 0; stroke-linejoin: miter; stroke-miterlimit: 4; fill: rgb(0,0,0); fill-rule: nonzero; opacity: 1;" vector-effect="non-scaling-stroke"  transform=" translate(-3336.01, -1758.46)" d="M 3495 2834 C 3377 2775 3299 2728 3135 2616 C 3072 2572 3072 2572 3111 2481 L 3135 2427 L 3110 2411 C 3097 2402 3076 2386 3064 2375 C 3052 2364 3030 2346 3016 2336 C 2999 2324 2984 2298 2974 2263 C 2961 2219 2954 2209 2932 2204 C 2893 2195 2790 2149 2790 2140 C 2790 2136 2778 2117 2763 2097 C 2747 2077 2708 2024 2675 1980 C 2642 1935 2593 1871 2566 1838 L 2517 1778 L 2524 1701 C 2535 1572 2537 1569 2578 1642 C 2597 1677 2614 1706 2615 1708 C 2616 1709 2629 1705 2644 1699 C 2672 1686 2672 1674 2644 1618 C 2630 1592 2631 1590 2659 1575 C 2676 1567 2691 1560 2694 1560 C 2698 1560 2731 1599 2812 1704 C 2895 1809 2955 1873 2958 1856 C 2960 1847 2953 1821 2942 1799 C 2922 1758 2922 1758 2942 1687 C 2952 1647 2962 1614 2964 1613 C 2965 1612 2988 1632 3016 1658 C 3078 1717 3155 1780 3165 1780 C 3169 1780 3170 1767 3167 1750 C 3162 1727 3164 1720 3176 1720 C 3185 1720 3190 1714 3187 1708 C 3184 1699 3167 1696 3138 1697 C 3087 1700 3080 1691 3080 1617 C 3080 1586 3073 1572 3043 1543 L 3005 1508 L 3035 1484 C 3051 1471 3062 1459 3060 1457 C 3057 1455 2962 1416 2849 1371 C 2736 1325 2637 1284 2629 1279 C 2618 1272 2625 1260 2663 1224 C 2689 1199 2710 1177 2710 1175 C 2710 1163 2639 1061 2628 1058 C 2620 1055 2636 1026 2671 979 C 2734 895 2770 838 2785 800 C 2791 786 2814 738 2838 692 C 2876 618 2882 611 2900 620 C 2913 627 2917 636 2912 648 C 2891 698 2816 836 2807 842 C 2785 856 2806 858 2853 847 C 2893 838 2906 829 2930 794 C 2945 771 2961 744 2964 733 C 2968 723 2977 707 2985 696 C 2998 678 3000 678 3037 701 C 3116 748 3198 818 3305 926 C 3366 988 3420 1044 3425 1052 C 3431 1059 3458 1094 3485 1130 C 3561 1228 3585 1267 3630 1362 C 3689 1488 3701 1527 3687 1538 C 3680 1543 3647 1562 3613 1579 C 3558 1606 3540 1610 3469 1610 L 3388 1610 L 3395 1648 C 3403 1693 3416 1710 3442 1710 C 3473 1710 3635 1653 3706 1618 C 3741 1601 3772 1589 3775 1592 C 3783 1600 3752 1777 3731 1845 L 3712 1905 L 3764 1908 C 3793 1910 3846 1905 3882 1897 L 3949 1884 L 3933 1914 C 3908 1962 3843 2047 3799 2088 C 3752 2133 3750 2146 3791 2155 C 3834 2165 3874 2187 3861 2194 C 3855 2198 3812 2204 3765 2207 C 3688 2212 3674 2210 3612 2186 C 3575 2171 3537 2154 3528 2149 C 3496 2133 3483 2139 3442 2194 C 3398 2252 3338 2283 3286 2273 C 3253 2266 3242 2250 3271 2250 C 3326 2250 3413 2170 3429 2103 C 3446 2038 3444 2030 3411 2030 C 3395 2030 3380 2027 3377 2023 C 3375 2018 3375 2021 3377 2028 C 3381 2047 3353 2111 3328 2137 C 3296 2171 3239 2184 3189 2169 C 3144 2155 3094 2103 3085 2058 C 3079 2034 3074 2030 3043 2030 L 3007 2030 L 3013 2070 C 3021 2132 3067 2198 3122 2226 C 3148 2239 3180 2250 3192 2250 C 3214 2251 3214 2251 3196 2265 C 3180 2277 3173 2277 3141 2264 C 3048 2225 3030 2215 3030 2201 C 3030 2188 3028 2188 3021 2199 C 3016 2206 3007 2209 3000 2205 C 2983 2194 3004 2233 3049 2293 C 3079 2334 3101 2349 3185 2389 C 3240 2415 3307 2445 3333 2455 C 3385 2475 3397 2488 3449 2579 C 3468 2612 3500 2657 3521 2677 C 3542 2698 3560 2719 3560 2724 C 3560 2730 3553 2725 3545 2714 C 3537 2704 3530 2700 3530 2706 C 3529 2748 3649 2773 3819 2768 C 3951 2763 3990 2757 3990 2740 C 3990 2735 3982 2730 3972 2728 C 3944 2723 3660 2567 3660 2557 C 3660 2546 3616 2474 3574 2416 C 3556 2392 3537 2362 3530 2350 C 3519 2330 3522 2330 3562 2357 C 3627 2401 3635 2402 3672 2370 L 3705 2341 L 3729 2363 C 3792 2420 4158 2795 4155 2799 C 4153 2801 4029 2802 3880 2801 C 3718 2801 3610 2804 3610 2809 C 3610 2815 3618 2825 3628 2832 C 3638 2839 3649 2850 3653 2857 C 3662 2872 3651 2900 3636 2900 C 3630 2899 3567 2870 3495 2834 z M 2856 2083 C 2853 2073 2844 2034 2835 1995 C 2826 1957 2811 1916 2802 1905 C 2785 1885 2647 1771 2622 1756 C 2600 1743 2625 1783 2681 1854 C 2714 1894 2736 1934 2746 1970 C 2772 2064 2779 2077 2813 2088 C 2859 2102 2862 2102 2856 2083 z M 3005 1930 C 3000 1921 2899 1932 2902 1941 C 2904 1946 2921 1970 2940 1994 L 2975 2038 L 2991 1987 C 3000 1958 3006 1933 3005 1930 z M 3108 1956 C 3165 1860 3298 1869 3365 1972 C 3372 1983 3382 1985 3400 1980 C 3421 1973 3422 1972 3404 1971 C 3393 1970 3374 1957 3362 1940 C 3331 1898 3296 1878 3242 1869 C 3195 1862 3146 1877 3127 1904 C 3122 1911 3115 1909 3105 1896 C 3093 1880 3090 1879 3090 1892 C 3090 1901 3084 1910 3076 1913 C 3054 1922 3037 1957 3056 1957 C 3063 1957 3070 1953 3070 1948 C 3070 1938 3095 1910 3104 1910 C 3115 1910 3079 1965 3068 1966 C 3017 1972 3016 1972 3045 1980 C 3062 1984 3078 1988 3082 1989 C 3085 1989 3097 1975 3108 1956 z M 3192 1842 C 3183 1839 3110 1868 3110 1875 C 3110 1877 3130 1871 3155 1862 C 3181 1853 3197 1844 3192 1842 z M 3199 1554 C 3206 1528 3210 1507 3208 1506 C 3195 1498 3087 1469 3084 1473 C 3074 1483 3111 1554 3138 1576 C 3176 1610 3186 1606 3199 1554 z" stroke-linecap="round" />
</g>
		<g transform="matrix(0.13 0 0 -0.13 26.2 -15.59)"  >
<path style="stroke: none; stroke-width: 1; stroke-dasharray: none; stroke-linecap: butt; stroke-dashoffset: 0; stroke-linejoin: miter; stroke-miterlimit: 4; fill: rgb(0,0,0); fill-rule: nonzero; opacity: 1;" vector-effect="non-scaling-stroke"  transform=" translate(-2463.47, -2262.99)" d="M 2451 2275 C 2450 2212 2463 2171 2475 2201 C 2478 2209 2474 2243 2466 2275 L 2452 2335 L 2451 2275 z" stroke-linecap="round" />
</g>
		<g transform="matrix(0.13 0 0 -0.13 -207.25 60.04)"  >
<path style="stroke: none; stroke-width: 1; stroke-dasharray: none; stroke-linecap: butt; stroke-dashoffset: 0; stroke-linejoin: miter; stroke-miterlimit: 4; fill: rgb(0,0,0); fill-rule: nonzero; opacity: 1;" vector-effect="non-scaling-stroke"  transform=" translate(-712.55, -1695.72)" d="M 693 2058 C 689 2051 686 2036 687 2025 C 688 2009 688 2009 684 2023 C 678 2043 664 2045 657 2028 C 653 2020 651 2021 651 2032 C 650 2043 644 2047 630 2043 C 618 2040 610 2043 610 2051 C 610 2069 595 2051 594 2032 C 594 2023 585 1997 576 1976 C 556 1932 558 1913 591 1745 C 623 1583 724 1311 748 1322 C 752 1324 779 1351 808 1382 L 862 1439 L 825 1532 C 766 1679 694 1999 707 2050 C 713 2072 705 2077 693 2058 z" stroke-linecap="round" />
</g>
		<g transform="matrix(0.13 0 0 -0.13 -79.42 201.91)"  >
<path style="stroke: none; stroke-width: 1; stroke-dasharray: none; stroke-linecap: butt; stroke-dashoffset: 0; stroke-linejoin: miter; stroke-miterlimit: 4; fill: rgb(0,0,0); fill-rule: nonzero; opacity: 1;" vector-effect="non-scaling-stroke"  transform=" translate(-1671.34, -631.69)" d="M 2201 1200 C 2148 1137 2109 1125 1984 1134 C 1874 1142 1838 1153 1784 1196 L 1743 1229 L 1714 1205 C 1698 1191 1682 1181 1678 1180 C 1675 1180 1639 1165 1598 1146 C 1558 1128 1471 1089 1405 1060 C 1228 983 1016 887 1010 883 C 1005 878 1059 827 1115 784 C 1196 721 1263 678 1355 629 C 1441 583 1611 507 1615 513 C 1616 514 1633 540 1654 571 C 1674 602 1705 638 1724 651 C 1750 668 1764 691 1786 752 C 1814 830 1816 832 1875 865 C 2013 941 2093 981 2098 976 C 2101 973 2091 938 2076 898 C 2061 858 2046 816 2043 805 C 2041 794 2015 769 1987 750 C 1897 690 1870 666 1870 646 C 1870 635 1863 585 1854 536 L 1837 445 L 1769 402 C 1731 378 1700 355 1700 350 C 1700 345 1692 334 1683 324 C 1659 301 1559 159 1520 93 C 1476 18 1484 -9 1532 55 C 1552 83 1589 132 1615 165 C 1640 198 1675 243 1691 265 C 1725 310 1740 318 1790 319 C 1818 320 1836 331 1884 376 L 1942 432 L 2000 425 C 2052 419 2062 421 2098 445 C 2121 460 2143 469 2148 466 C 2160 459 2151 499 2138 517 C 2133 524 2132 535 2136 541 C 2140 548 2139 550 2132 546 C 2121 540 2098 572 2102 587 C 2103 591 2099 605 2092 618 C 2078 642 2080 649 2169 880 C 2191 938 2210 990 2210 996 C 2210 1008 2266 1062 2309 1092 L 2333 1109 L 2311 1142 C 2300 1160 2283 1189 2275 1207 C 2267 1224 2256 1241 2252 1244 C 2247 1247 2224 1227 2201 1200 z" stroke-linecap="round" />
</g>
		<g transform="matrix(0.13 0 0 -0.13 28.87 177.56)"  >
<path style="stroke: none; stroke-width: 1; stroke-dasharray: none; stroke-linecap: butt; stroke-dashoffset: 0; stroke-linejoin: miter; stroke-miterlimit: 4; fill: rgb(0,0,0); fill-rule: nonzero; opacity: 1;" vector-effect="non-scaling-stroke"  transform=" translate(-2483.5, -814.33)" d="M 2398 1049 L 2352 912 L 2379 858 C 2393 829 2417 785 2432 760 C 2446 735 2471 677 2486 632 C 2518 537 2525 553 2428 498 L 2380 471 L 2374 495 C 2364 534 2350 524 2350 480 C 2350 443 2352 440 2373 444 C 2496 469 2601 494 2612 501 C 2622 508 2618 524 2591 577 C 2573 615 2549 661 2540 680 C 2530 699 2506 747 2486 785 C 2454 846 2449 861 2455 900 C 2471 1021 2470 1019 2508 1040 C 2529 1050 2540 1059 2533 1060 C 2527 1060 2519 1068 2516 1078 C 2513 1087 2495 1115 2478 1140 L 2445 1186 L 2398 1049 z" stroke-linecap="round" />
</g>
</g>
</g>
</svg>